<svg xmlns="http://www.w3.org/2000/svg" width="164" height="59" preserveAspectRatio="xMidYMid" style="margin:auto;background:0 0;display:block;shape-rendering:auto"><style type="text/css"/><g style="transform-origin:82px 29.5px;transform:scale(1)"><g><g><g style="opacity:1;transform-origin:-61.7637px -2.81445px 0;animation:1.92308s linear -1.08791s infinite normal forwards running fade-b811e0bf-c695-498a-8f0a-772ae1253398" class="path"><path style="fill:#fe8531" fill="#fe8531" stroke="none" stroke-width="none" d="M3.61 0.44L3.61 0.44L3.61 0.44Q1.80 0.44 0 0.04L0 0.04L1.41-5.24L1.41-5.24Q2.86-4.75 4.22-4.75L4.22-4.75L4.22-4.75Q6.91-4.75 6.91-9.20L6.91-9.20L6.29-29.48L12.54-30.58L11.92-10.74L11.92-10.74Q11.92-5.94 9.59-2.75L9.59-2.75L9.59-2.75Q7.26 0.44 3.61 0.44" transform="translate(82,29.5) translate(0,0) translate(-68.03333282470703,12.254092145647325)"/></g><g style="opacity:1;transform-origin:-42.293px .988281px 0;animation:1.92308s linear -.906593s infinite normal forwards running fade-b811e0bf-c695-498a-8f0a-772ae1253398" class="path"><path style="fill:#5cc5c1" fill="#fe8531" stroke="none" stroke-width="none" d="M22.48 0L22.48 0Q19.89 0 18.24-1.65L18.24-1.65L18.24-1.65Q16.59-3.30 16.59-6.09L16.59-6.09L16.59-6.09Q16.59-8.89 19.14-10.93L19.14-10.93L19.14-10.93Q21.69-12.98 25.34-12.98L25.34-12.98L28.34-12.98L28.34-13.73L28.34-13.73Q28.34-15.88 27.46-16.68L27.46-16.68L27.46-16.68Q26.58-17.47 24.16-17.47L24.16-17.47L24.16-17.47Q23.14-17.47 21.76-17.05L21.76-17.05L21.76-17.05Q20.37-16.63 18.66-15.75L18.66-15.75L17.38-19.23L17.38-19.23Q19.27-20.55 21.98-21.60L21.98-21.60L21.98-21.60Q24.68-22.66 26.44-22.66L26.44-22.66L26.44-22.66Q33.35-22.66 33.35-15.97L33.35-15.97L33.35-7.35L33.35-7.35Q33.35-4.88 34.89-1.85L34.89-1.85L30.23 0.13L30.23 0.13Q29.13-1.98 28.60-3.65L28.60-3.65L28.60-3.65Q26.18 0 22.48 0L22.48 0zM24.33-4.49L24.33-4.49L24.33-4.49Q26.09-4.49 28.34-6.29L28.34-6.29L28.34-9.24L28.34-9.24Q26.00-9.77 24.55-9.77L24.55-9.77L24.55-9.77Q21.78-9.77 21.78-7.30L21.78-7.30L21.78-7.30Q21.78-6.03 22.48-5.26L22.48-5.26L22.48-5.26Q23.19-4.49 24.33-4.49" transform="translate(82,29.5) translate(0,0) translate(-68.03333282470703,12.254092145647325)"/></g><g style="opacity:1;transform-origin:-23.7676px -1.36523px 0;animation:1.92308s linear -.725275s infinite normal forwards running fade-b811e0bf-c695-498a-8f0a-772ae1253398" class="path"><path style="fill:#0b7c80" fill="#fe8531" stroke="none" stroke-width="none" d="M37.88-21.30L40.44-21.30L40.44-26.09L46.38-27.24L45.80-21.30L51.13-21.30L50.64-17.69L45.63-17.69L45.41-8.49L45.41-8.49Q45.41-6.42 45.80-5.74L45.80-5.74L45.80-5.74Q46.20-5.06 47.26-5.06L47.26-5.06L47.26-5.06Q48.31-5.06 50.07-5.54L50.07-5.54L50.34-2.42L50.34-2.42Q47.43 0 45.23 0L45.23 0L45.23 0Q43.03 0 41.62-1.61L41.62-1.61L41.62-1.61Q40.22-3.21 40.22-5.81L40.22-5.81L40.48-10.74L40.44-17.69L37.40-17.69L37.88-21.30" transform="translate(82,29.5) translate(0,0) translate(-68.03333282470703,12.254092145647325)"/></g><g style="opacity:1;transform-origin:-6.49805px 1.16406px 0;animation:1.92308s linear -.543956s infinite normal forwards running fade-b811e0bf-c695-498a-8f0a-772ae1253398" class="path"><path style="fill:#fe8531" fill="#fe8531" stroke="none" stroke-width="none" d="M62.26-4.49L62.26-4.49L62.26-4.49Q63.54-4.49 64.94-5.15L64.94-5.15L64.94-5.15Q66.35-5.81 67.14-6.47L67.14-6.47L67.94-7.13L69.96-4.66L69.96-4.66Q69.52-3.92 68.60-2.95L68.60-2.95L68.60-2.95Q67.67-1.98 66.73-1.30L66.73-1.30L66.73-1.30Q65.78-0.62 64.22-0.07L64.22-0.07L64.22-0.07Q62.66 0.48 60.98 0.48L60.98 0.48L60.98 0.48Q57.42 0.48 55.18-2.22L55.18-2.22L55.18-2.22Q52.93-4.93 52.93-9.20L52.93-9.20L52.93-9.20Q52.93-14.56 56.06-18.61L56.06-18.61L56.06-18.61Q59.18-22.66 63.36-22.66L63.36-22.66L63.36-22.66Q66.57-22.66 68.35-20.86L68.35-20.86L68.35-20.86Q70.14-19.05 70.14-15.80L70.14-15.80L70.14-15.80Q70.14-13.86 69.48-11.40L69.48-11.40L68.60-10.47L57.60-9.46L57.60-9.46Q58.34-4.49 62.26-4.49zM62.26-18.13L62.26-18.13L62.26-18.13Q60.32-18.13 59.00-16.57L59.00-16.57L59.00-16.57Q57.68-15.00 57.46-12.58L57.46-12.58L64.94-13.51L64.94-13.51Q65.08-14.52 65.08-15.18L65.08-15.18L65.08-15.18Q65.08-18.13 62.26-18.13" transform="translate(82,29.5) translate(0,0) translate(-68.03333282470703,12.254092145647325)"/></g><g style="opacity:1;transform-origin:14.7754px 1.16406px 0;animation:1.92308s linear -.362637s infinite normal forwards running fade-b811e0bf-c695-498a-8f0a-772ae1253398" class="path"><path style="fill:#5cc5c1" fill="#fe8531" stroke="none" stroke-width="none" d="M86.72-11.13L86.72-11.13Q86.72-14.17 86.20-15.18L86.20-15.18L86.20-15.18Q85.67-16.19 83.73-16.19L83.73-16.19L83.73-16.19Q81.80-16.19 79.33-14.65L79.33-14.65L79.33-11.44L79.82-1.10L73.92 0L74.45-10.69L74.45-10.69Q74.27-16.59 73.48-21.25L73.48-21.25L78.80-22.40L78.80-22.40Q79.11-19.84 79.24-17.42L79.24-17.42L79.24-17.42Q79.90-18.30 80.74-19.16L80.74-19.16L80.74-19.16Q81.58-20.02 83.38-21.10L83.38-21.10L83.38-21.10Q85.18-22.18 87.19-22.18L87.19-22.18L87.19-22.18Q89.19-22.18 90.55-20.61L90.55-20.61L90.55-20.61Q91.92-19.05 91.92-16.37L91.92-16.37L91.65-11.44L92.14-0.88L86.20 0.22L86.72-11.13" transform="translate(82,29.5) translate(0,0) translate(-68.03333282470703,12.254092145647325)"/></g><g style="opacity:1;transform-origin:38.1855px 5.76367px 0;animation:1.92308s linear -.181319s infinite normal forwards running fade-b811e0bf-c695-498a-8f0a-772ae1253398" class="path"><path style="fill:#0b7c80" fill="#fe8531" stroke="none" stroke-width="none" d="M95.44 4.36L95.44 4.36L95.44 4.36Q95.44 0.48 102.65-1.72L102.65-1.72L102.65-1.72Q100.94-2.60 100.94-4.00L100.94-4.00L100.94-4.00Q100.94-4.58 101.38-5.15L101.38-5.15L101.38-5.15Q101.82-5.72 102.65-6.34L102.65-6.34L102.65-6.69L102.65-6.69Q99.48-6.69 97.61-8.45L97.61-8.45L97.61-8.45Q95.74-10.21 95.74-13.16L95.74-13.16L95.74-13.16Q95.74-16.98 98.87-19.82L98.87-19.82L98.87-19.82Q101.99-22.66 106.26-22.66L106.26-22.66L106.26-22.66Q107.36-22.66 109.47-22.22L109.47-22.22L109.47-22.22Q111.58-21.78 113.61-21.78L113.61-21.78L117.00-21.78L116.56-17.95L113.26-18.35L113.26-18.35Q113.70-17.07 113.70-15.44L113.70-15.44L113.70-15.44Q113.70-13.82 112.93-12.21L112.93-12.21L112.93-12.21Q112.16-10.60 111.08-9.64L111.08-9.64L111.08-9.64Q110.00-8.67 108.92-7.94L108.92-7.94L108.92-7.94Q107.84-7.22 107.07-6.67L107.07-6.67L107.07-6.67Q106.30-6.12 106.30-5.68L106.30-5.68L106.30-5.68Q106.30-4.84 108.06-4.22L108.06-4.22L108.06-4.22Q112.73-2.33 114.38-1.01L114.38-1.01L114.38-1.01Q116.03 0.31 116.03 2.24L116.03 2.24L116.03 2.24Q116.03 5.50 112.75 7.59L112.75 7.59L112.75 7.59Q109.47 9.68 104.94 9.68L104.94 9.68L104.94 9.68Q100.41 9.68 97.92 8.23L97.92 8.23L97.92 8.23Q95.44 6.78 95.44 4.36zM108.72-14.12L108.72-14.12L108.72-14.12Q108.72-16.28 107.76-17.29L107.76-17.29L107.76-17.29Q106.79-18.30 104.72-18.30L104.72-18.30L104.72-18.30Q100.72-18.30 100.72-14.37L100.72-14.37L100.72-14.37Q100.72-10.43 104.98-10.43L104.98-10.43L104.98-10.43Q108.72-10.43 108.72-14.12zM110.31 2.90L110.31 2.90L110.31 2.90Q110.31 2.11 109.47 1.43L109.47 1.43L109.47 1.43Q108.64 0.75 106.48-0.18L106.48-0.18L106.48-0.18Q103.27 0.70 102.06 1.45L102.06 1.45L102.06 1.45Q100.85 2.20 100.85 3.30L100.85 3.30L100.85 3.30Q100.85 4.40 102.06 5.08L102.06 5.08L102.06 5.08Q103.27 5.76 105.42 5.76L105.42 5.76L105.42 5.76Q107.58 5.76 108.94 4.97L108.94 4.97L108.94 4.97Q110.31 4.18 110.31 2.90" transform="translate(82,29.5) translate(0,0) translate(-68.03333282470703,12.254092145647325)"/></g><g style="opacity:1;transform-origin:58.4902px -1.67578px 0;animation:1.92308s linear 0s infinite normal forwards running fade-b811e0bf-c695-498a-8f0a-772ae1253398" class="path"><path style="fill:#fe8531" fill="#fe8531" stroke="none" stroke-width="none" d="M125.44 0.48L119.20-1.50L130.24-23.23L117.00-22.22L117.96-28.29L127.25-27.81L136.05-28.34L135.39-23.63L128.26-8.89L125.44 0.48" transform="translate(82,29.5) translate(0,0) translate(-68.03333282470703,12.254092145647325)"/></g></g></g></g><style id="fade-b811e0bf-c695-498a-8f0a-772ae1253398">@keyframes fade-b811e0bf-c695-498a-8f0a-772ae1253398{0%{animation-timing-function:cubic-bezier(.2057,.573,.3723,.9184);opacity:1}}</style></svg>