<svg xmlns="http://www.w3.org/2000/svg" width="209" height="53" preserveAspectRatio="xMidYMid" style="margin:auto;background:#f1f2f3;display:block"><style type="text/css"/><g style="transform-origin:104.5px 26.5px;transform:scale(1)"><g><g><g style="transform:rotate(0deg);transform-origin:-77.6973px -2.59961px 0;animation:1s linear -.565714s infinite normal forwards running smash-a2026b92-84fe-4876-b90d-7f2b12465525" class="path"><path style="fill:#fe8531" fill="#fe8531" stroke="none" stroke-width="none" d="M7.70-8.89L7.70-26.66L7.70-26.66Q8.18-26.75 9.24-26.91L9.24-26.91L9.24-26.91Q10.30-27.06 11.26-27.06L11.26-27.06L11.26-27.06Q12.28-27.06 13.05-26.91L13.05-26.91L13.05-26.91Q13.82-26.75 14.34-26.36L14.34-26.36L14.34-26.36Q14.87-25.96 15.14-25.26L15.14-25.26L15.14-25.26Q15.40-24.55 15.40-23.41L15.40-23.41L15.40-7.13L15.40-7.13Q15.40-3.21 13.16-1.25L13.16-1.25L13.16-1.25Q10.91 0.70 6.56 0.70L6.56 0.70L6.56 0.70Q4.27 0.70 2.86 0L2.86 0L2.86 0Q1.85-0.48 1.39-1.32L1.39-1.32L1.39-1.32Q0.92-2.16 0.92-3.21L0.92-3.21L0.92-3.21Q0.92-4.09 1.17-4.75L1.17-4.75L1.17-4.75Q1.41-5.41 1.76-5.81L1.76-5.81L1.76-5.81Q2.60-5.63 3.19-5.57L3.19-5.57L3.19-5.57Q3.78-5.50 4.49-5.50L4.49-5.50L4.49-5.50Q6.20-5.50 6.95-6.36L6.95-6.36L6.95-6.36Q7.70-7.22 7.70-8.89L7.70-8.89" transform="translate(104.5,26.5) translate(0,0) translate(-85.85834503173828,10.581194065638945)"/></g><g style="transform:rotate(0deg);transform-origin:-53.8027px -2.75px 0;animation:1s linear -.471429s infinite normal forwards running smash-a2026b92-84fe-4876-b90d-7f2b12465525" class="path"><path style="fill:#5cc5c1" fill="#fe8531" stroke="none" stroke-width="none" d="M26.66-25.87L26.66-25.87L26.66-25.87Q27.41-26.31 28.93-26.71L28.93-26.71L28.93-26.71Q30.45-27.10 31.99-27.10L31.99-27.10L31.99-27.10Q34.19-27.10 35.88-26.47L35.88-26.47L35.88-26.47Q37.58-25.83 38.06-24.46L38.06-24.46L38.06-24.46Q38.85-22.18 39.78-19.14L39.78-19.14L39.78-19.14Q40.70-16.10 41.62-12.87L41.62-12.87L41.62-12.87Q42.55-9.64 43.43-6.49L43.43-6.49L43.43-6.49Q44.31-3.34 44.97-0.92L44.97-0.92L44.97-0.92Q44.44-0.31 43.38 0.07L43.38 0.07L43.38 0.07Q42.33 0.44 40.88 0.44L40.88 0.44L40.88 0.44Q39.82 0.44 39.09 0.26L39.09 0.26L39.09 0.26Q38.37 0.09 37.91-0.26L37.91-0.26L37.91-0.26Q37.44-0.62 37.16-1.19L37.16-1.19L37.16-1.19Q36.87-1.76 36.65-2.51L36.65-2.51L35.86-5.54L27.90-5.54L27.90-5.54Q27.54-4.22 27.19-2.82L27.19-2.82L27.19-2.82Q26.84-1.41 26.49-0.09L26.49-0.09L26.49-0.09Q25.87 0.13 25.19 0.29L25.19 0.29L25.19 0.29Q24.51 0.44 23.54 0.44L23.54 0.44L23.54 0.44Q21.30 0.44 20.22-0.33L20.22-0.33L20.22-0.33Q19.14-1.10 19.14-2.46L19.14-2.46L19.14-2.46Q19.14-3.08 19.32-3.70L19.32-3.70L19.32-3.70Q19.49-4.31 19.71-5.15L19.71-5.15L19.71-5.15Q20.02-6.34 20.57-8.10L20.57-8.10L20.57-8.10Q21.12-9.86 21.78-11.90L21.78-11.90L21.78-11.90Q22.44-13.95 23.19-16.10L23.19-16.10L23.19-16.10Q23.94-18.26 24.60-20.17L24.60-20.17L24.60-20.17Q25.26-22.09 25.81-23.58L25.81-23.58L25.81-23.58Q26.36-25.08 26.66-25.87zM32.21-20.20L31.94-20.20L31.94-20.20Q31.33-18.35 30.56-16.08L30.56-16.08L30.56-16.08Q29.79-13.82 29.17-11.48L29.17-11.48L34.63-11.48L34.63-11.48Q34.01-13.86 33.37-16.13L33.37-16.13L33.37-16.13Q32.74-18.39 32.21-20.20L32.21-20.20" transform="translate(104.5,26.5) translate(0,0) translate(-85.85834503173828,10.581194065638945)"/></g><g style="transform:rotate(0deg);transform-origin:-29.4922px -2.70898px 0;animation:1s linear -.377143s infinite normal forwards running smash-a2026b92-84fe-4876-b90d-7f2b12465525" class="path"><path style="fill:#0b7c80" fill="#fe8531" stroke="none" stroke-width="none" d="M52.40-20.50L45.80-20.50L45.80-20.50Q45.50-20.99 45.23-21.82L45.23-21.82L45.23-21.82Q44.97-22.66 44.97-23.58L44.97-23.58L44.97-23.58Q44.97-25.30 45.74-26.05L45.74-26.05L45.74-26.05Q46.51-26.80 47.74-26.80L47.74-26.80L66.92-26.80L66.92-26.80Q67.23-26.31 67.50-25.48L67.50-25.48L67.50-25.48Q67.76-24.64 67.76-23.72L67.76-23.72L67.76-23.72Q67.76-22 66.99-21.25L66.99-21.25L66.99-21.25Q66.22-20.50 64.99-20.50L64.99-20.50L60.10-20.50L60.10-0.18L60.10-0.18Q59.62-0.04 58.59 0.09L58.59 0.09L58.59 0.09Q57.55 0.22 56.54 0.22L56.54 0.22L56.54 0.22Q55.53 0.22 54.76 0.07L54.76 0.07L54.76 0.07Q53.99-0.09 53.46-0.48L53.46-0.48L53.46-0.48Q52.93-0.88 52.67-1.58L52.67-1.58L52.67-1.58Q52.40-2.29 52.40-3.43L52.40-3.43L52.40-20.50" transform="translate(104.5,26.5) translate(0,0) translate(-85.85834503173828,10.581194065638945)"/></g><g style="transform:rotate(0deg);transform-origin:-4.56836px -2.68359px 0;animation:1s linear -.282857s infinite normal forwards running smash-a2026b92-84fe-4876-b90d-7f2b12465525" class="path"><path style="fill:#fe8531" fill="#fe8531" stroke="none" stroke-width="none" d="M71.50-3.96L71.50-22.57L71.50-22.57Q71.50-24.46 72.60-25.56L72.60-25.56L72.60-25.56Q73.70-26.66 75.59-26.66L75.59-26.66L90.11-26.66L90.11-26.66Q90.42-26.18 90.66-25.39L90.66-25.39L90.66-25.39Q90.90-24.60 90.90-23.72L90.90-23.72L90.90-23.72Q90.90-22.04 90.18-21.34L90.18-21.34L90.18-21.34Q89.45-20.64 88.26-20.64L88.26-20.64L78.98-20.64L78.98-16.54L88.88-16.54L88.88-16.54Q89.19-16.06 89.43-15.29L89.43-15.29L89.43-15.29Q89.67-14.52 89.67-13.64L89.67-13.64L89.67-13.64Q89.67-11.97 88.97-11.26L88.97-11.26L88.97-11.26Q88.26-10.56 87.08-10.56L87.08-10.56L78.98-10.56L78.98-5.94L90.29-5.94L90.29-5.94Q90.60-5.46 90.84-4.66L90.84-4.66L90.84-4.66Q91.08-3.87 91.08-2.99L91.08-2.99L91.08-2.99Q91.08-1.32 90.35-0.59L90.35-0.59L90.35-0.59Q89.63 0.13 88.44 0.13L88.44 0.13L75.59 0.13L75.59 0.13Q73.70 0.13 72.60-0.97L72.60-0.97L72.60-0.97Q71.50-2.07 71.50-3.96L71.50-3.96" transform="translate(104.5,26.5) translate(0,0) translate(-85.85834503173828,10.581194065638945)"/></g><g style="transform:rotate(0deg);transform-origin:21.8301px -2.77539px 0;animation:1s linear -.188571s infinite normal forwards running smash-a2026b92-84fe-4876-b90d-7f2b12465525" class="path"><path style="fill:#5cc5c1" fill="#fe8531" stroke="none" stroke-width="none" d="M119.77-23.54L119.77-0.92L119.77-0.92Q119.15-0.31 117.99 0.02L117.99 0.02L117.99 0.02Q116.82 0.35 115.19 0.35L115.19 0.35L115.19 0.35Q113.56 0.35 112.11-0.13L112.11-0.13L112.11-0.13Q110.66-0.62 109.74-2.46L109.74-2.46L105.38-11.35L105.38-11.35Q104.72-12.72 104.19-13.93L104.19-13.93L104.19-13.93Q103.66-15.14 103.05-16.72L103.05-16.72L102.78-16.68L102.78-16.68Q102.96-14.30 102.98-11.84L102.98-11.84L102.98-11.84Q103.00-9.37 103.00-7.00L103.00-7.00L103.00-0.18L103.00-0.18Q102.52-0.04 101.53 0.09L101.53 0.09L101.53 0.09Q100.54 0.22 99.57 0.22L99.57 0.22L99.57 0.22Q98.60 0.22 97.86 0.09L97.86 0.09L97.86 0.09Q97.11-0.04 96.62-0.44L96.62-0.44L96.62-0.44Q96.14-0.84 95.88-1.52L95.88-1.52L95.88-1.52Q95.61-2.20 95.61-3.30L95.61-3.30L95.61-25.30L95.61-25.30Q96.23-26.18 97.50-26.62L97.50-26.62L97.50-26.62Q98.78-27.06 100.23-27.06L100.23-27.06L100.23-27.06Q101.86-27.06 103.33-26.55L103.33-26.55L103.33-26.55Q104.81-26.05 105.69-24.24L105.69-24.24L110.09-15.36L110.09-15.36Q110.75-13.99 111.28-12.78L111.28-12.78L111.28-12.78Q111.80-11.57 112.42-9.99L112.42-9.99L112.64-10.03L112.64-10.03Q112.46-12.41 112.42-14.78L112.42-14.78L112.42-14.78Q112.38-17.16 112.38-19.54L112.38-19.54L112.38-26.66L112.38-26.66Q112.86-26.80 113.85-26.93L113.85-26.93L113.85-26.93Q114.84-27.06 115.81-27.06L115.81-27.06L115.81-27.06Q117.74-27.06 118.76-26.38L118.76-26.38L118.76-26.38Q119.77-25.70 119.77-23.54L119.77-23.54" transform="translate(104.5,26.5) translate(0,0) translate(-85.85834503173828,10.581194065638945)"/></g><g style="transform:rotate(0deg);transform-origin:51.0469px -2.77344px 0;animation:1s linear -.0942857s infinite normal forwards running smash-a2026b92-84fe-4876-b90d-7f2b12465525" class="path"><path style="fill:#0b7c80" fill="#fe8531" stroke="none" stroke-width="none" d="M149.64-13.33L149.64-4.36L149.64-4.36Q149.64-2.99 149.16-2.33L149.16-2.33L149.16-2.33Q148.68-1.67 147.62-1.06L147.62-1.06L147.62-1.06Q147.00-0.70 146.08-0.37L146.08-0.37L146.08-0.37Q145.16-0.04 144.06 0.20L144.06 0.20L144.06 0.20Q142.96 0.44 141.75 0.57L141.75 0.57L141.75 0.57Q140.54 0.70 139.35 0.70L139.35 0.70L139.35 0.70Q136.18 0.70 133.41-0.15L133.41-0.15L133.41-0.15Q130.64-1.01 128.59-2.75L128.59-2.75L128.59-2.75Q126.54-4.49 125.36-7.08L125.36-7.08L125.36-7.08Q124.17-9.68 124.17-13.11L124.17-13.11L124.17-13.11Q124.17-16.72 125.47-19.40L125.47-19.40L125.47-19.40Q126.76-22.09 128.90-23.87L128.90-23.87L128.90-23.87Q131.03-25.65 133.78-26.53L133.78-26.53L133.78-26.53Q136.53-27.41 139.44-27.41L139.44-27.41L139.44-27.41Q143.62-27.41 146.06-26.07L146.06-26.07L146.06-26.07Q148.50-24.73 148.50-22.57L148.50-22.57L148.50-22.57Q148.50-21.43 147.93-20.59L147.93-20.59L147.93-20.59Q147.36-19.76 146.61-19.27L146.61-19.27L146.61-19.27Q145.51-19.93 143.86-20.57L143.86-20.57L143.86-20.57Q142.21-21.21 140.14-21.21L140.14-21.21L140.14-21.21Q136.44-21.21 134.27-19.10L134.27-19.10L134.27-19.10Q132.09-16.98 132.09-13.24L132.09-13.24L132.09-13.24Q132.09-11.22 132.68-9.75L132.68-9.75L132.68-9.75Q133.28-8.27 134.29-7.33L134.29-7.33L134.29-7.33Q135.30-6.38 136.62-5.92L136.62-5.92L136.62-5.92Q137.94-5.46 139.44-5.46L139.44-5.46L139.44-5.46Q140.40-5.46 141.15-5.63L141.15-5.63L141.15-5.63Q141.90-5.81 142.30-6.03L142.30-6.03L142.30-10.16L137.59-10.16L137.59-10.16Q137.32-10.65 137.08-11.44L137.08-11.44L137.08-11.44Q136.84-12.23 136.84-13.11L136.84-13.11L136.84-13.11Q136.84-14.70 137.57-15.40L137.57-15.40L137.57-15.40Q138.29-16.10 139.44-16.10L139.44-16.10L146.87-16.10L146.87-16.10Q148.19-16.10 148.92-15.38L148.92-15.38L148.92-15.38Q149.64-14.65 149.64-13.33L149.64-13.33" transform="translate(104.5,26.5) translate(0,0) translate(-85.85834503173828,10.581194065638945)"/></g><g style="transform:rotate(0deg);transform-origin:76.8066px -2.61914px 0;animation:1s linear 0s infinite normal forwards running smash-a2026b92-84fe-4876-b90d-7f2b12465525" class="path"><path style="fill:#fe8531" fill="#fe8531" stroke="none" stroke-width="none" d="M155.36-26.75L170.68-26.75L170.68-26.75Q171.42-26.27 172.02-25.41L172.02-25.41L172.02-25.41Q172.61-24.55 172.61-23.28L172.61-23.28L172.61-23.28Q172.61-22.57 172.48-21.85L172.48-21.85L172.48-21.85Q172.35-21.12 172.04-20.42L172.04-20.42L162.89 0.31L162.89 0.31Q162.27 0.35 161.72 0.35L161.72 0.35L161.72 0.35Q161.17 0.35 160.69 0.35L160.69 0.35L160.69 0.35Q158.71 0.35 157.48-0.40L157.48-0.40L157.48-0.40Q156.24-1.14 156.24-2.99L156.24-2.99L156.24-2.99Q156.24-3.92 156.68-4.99L156.68-4.99L156.68-4.99Q157.12-6.07 157.87-7.57L157.87-7.57L164.30-20.72L153.52-20.72L153.52-20.72Q153.25-21.21 152.99-22L152.99-22L152.99-22Q152.72-22.79 152.72-23.67L152.72-23.67L152.72-23.67Q152.72-25.34 153.47-26.05L153.47-26.05L153.47-26.05Q154.22-26.75 155.36-26.75L155.36-26.75" transform="translate(104.5,26.5) translate(0,0) translate(-85.85834503173828,10.581194065638945)"/></g></g></g></g></svg>